<?xml version="1.0" encoding="UTF-8" standalone="no"?>
<!-- Created with Inkscape (http://www.inkscape.org/) -->

<svg
   version="1.0"
   width="600.01703"
   height="575.38287"
   id="svg4014"
   style="enable-background:new"
   sodipodi:version="0.32"
   inkscape:version="1.2.2 (732a01da63, 2022-12-09)"
   sodipodi:docname="HSI_Radial_Target.svg"
   inkscape:output_extension="org.inkscape.output.svg.inkscape"
   xmlns:inkscape="http://www.inkscape.org/namespaces/inkscape"
   xmlns:sodipodi="http://sodipodi.sourceforge.net/DTD/sodipodi-0.dtd"
   xmlns:xlink="http://www.w3.org/1999/xlink"
   xmlns="http://www.w3.org/2000/svg"
   xmlns:svg="http://www.w3.org/2000/svg"
   xmlns:rdf="http://www.w3.org/1999/02/22-rdf-syntax-ns#"
   xmlns:cc="http://creativecommons.org/ns#"
   xmlns:dc="http://purl.org/dc/elements/1.1/">
  <metadata
     id="metadata3107">
    <rdf:RDF>
      <cc:Work
         rdf:about="">
        <dc:format>image/svg+xml</dc:format>
        <dc:type
           rdf:resource="http://purl.org/dc/dcmitype/StillImage" />
      </cc:Work>
    </rdf:RDF>
  </metadata>
  <sodipodi:namedview
     inkscape:window-height="2071"
     inkscape:window-width="3840"
     inkscape:pageshadow="2"
     inkscape:pageopacity="0.0"
     guidetolerance="10.0"
     gridtolerance="10.0"
     objecttolerance="10.0"
     borderopacity="1.0"
     bordercolor="#666666"
     pagecolor="#ffffff"
     id="base"
     showgrid="false"
     inkscape:zoom="2.6631579"
     inkscape:cx="345.2668"
     inkscape:cy="292.32214"
     inkscape:current-layer="svg4014"
     showguides="true"
     inkscape:guide-bbox="true"
     inkscape:showpageshadow="2"
     inkscape:pagecheckerboard="0"
     inkscape:deskcolor="#d1d1d1"
     inkscape:window-x="-11"
     inkscape:window-y="-11"
     inkscape:window-maximized="1" />
  <defs
     id="defs4016">
    <inkscape:perspective
       sodipodi:type="inkscape:persp3d"
       inkscape:vp_x="0 : 217.45756 : 1"
       inkscape:vp_y="0 : 1000 : 0"
       inkscape:vp_z="1011.7799 : 217.45756 : 1"
       inkscape:persp3d-origin="505.88995 : 83.432654 : 1"
       id="perspective3109" />
    <linearGradient
       id="linearGradient4117">
      <stop
         id="stop4119"
         style="stop-color:#676767;stop-opacity:1"
         offset="0" />
      <stop
         id="stop4121"
         style="stop-color:#373737;stop-opacity:1"
         offset="1" />
    </linearGradient>
    <linearGradient
       id="linearGradient4050">
      <stop
         id="stop4052"
         style="stop-color:#a3a3a3;stop-opacity:1"
         offset="0" />
      <stop
         id="stop4054"
         style="stop-color:#515151;stop-opacity:1"
         offset="1" />
    </linearGradient>
    <linearGradient
       id="linearGradient5892">
      <stop
         id="stop5894"
         style="stop-color:#747474;stop-opacity:1"
         offset="0" />
      <stop
         id="stop5896"
         style="stop-color:#595959;stop-opacity:1"
         offset="1" />
    </linearGradient>
    <linearGradient
       id="linearGradient5863">
      <stop
         id="stop5865"
         style="stop-color:#747474;stop-opacity:1"
         offset="0" />
      <stop
         id="stop5867"
         style="stop-color:#4c4c4c;stop-opacity:1"
         offset="1" />
    </linearGradient>
    <linearGradient
       id="linearGradient5848">
      <stop
         id="stop5850"
         style="stop-color:#9f9f9f;stop-opacity:1"
         offset="0" />
      <stop
         id="stop5852"
         style="stop-color:#555555;stop-opacity:1"
         offset="1" />
    </linearGradient>
    <linearGradient
       id="linearGradient5757">
      <stop
         id="stop5759"
         style="stop-color:#656565;stop-opacity:1"
         offset="0" />
      <stop
         id="stop5761"
         style="stop-color:#333333;stop-opacity:1"
         offset="1" />
    </linearGradient>
    <linearGradient
       id="linearGradient5309">
      <stop
         id="stop5311"
         style="stop-color:#5e5e5e;stop-opacity:1"
         offset="0" />
      <stop
         id="stop5313"
         style="stop-color:#414141;stop-opacity:1"
         offset="1" />
    </linearGradient>
    <linearGradient
       id="linearGradient4995">
      <stop
         id="stop4997"
         style="stop-color:#1f1f1f;stop-opacity:1"
         offset="0" />
      <stop
         id="stop5003"
         style="stop-color:#8d8d8d;stop-opacity:1"
         offset="0.74137932" />
      <stop
         id="stop4999"
         style="stop-color:#606060;stop-opacity:1"
         offset="1" />
    </linearGradient>
    <linearGradient
       x1="447.99783"
       y1="280.24783"
       x2="267.79407"
       y2="280.24783"
       id="linearGradient5304"
       xlink:href="#linearGradient4995"
       gradientUnits="userSpaceOnUse"
       gradientTransform="rotate(26.163336,357.71011,278.62469)" />
    <linearGradient
       x1="276.65573"
       y1="214.52765"
       x2="400.16425"
       y2="360.65201"
       id="linearGradient5315"
       xlink:href="#linearGradient5309"
       gradientUnits="userSpaceOnUse" />
    <filter
       color-interpolation-filters="sRGB"
       id="filter5343"
       x="-0.050447302"
       y="-0.045779161"
       width="1.1008946"
       height="1.0915583">
      <feGaussianBlur
         id="feGaussianBlur5345"
         stdDeviation="1.533125" />
    </filter>
    <filter
       x="-0.48121873"
       y="-0.025011834"
       width="1.9624375"
       height="1.0500237"
       color-interpolation-filters="sRGB"
       id="filter5349">
      <feGaussianBlur
         id="feGaussianBlur5351"
         stdDeviation="1.3209374" />
    </filter>
    <filter
       color-interpolation-filters="sRGB"
       id="filter5775"
       x="-0.63640752"
       y="-0.033406193"
       width="2.272815"
       height="1.0668124">
      <feGaussianBlur
         id="feGaussianBlur5777"
         stdDeviation="2.40107" />
    </filter>
    <filter
       color-interpolation-filters="sRGB"
       id="filter5825"
       x="-0.034842256"
       y="-0.077125476"
       width="1.0696845"
       height="1.154251">
      <feGaussianBlur
         id="feGaussianBlur5827"
         stdDeviation="1.4445019" />
    </filter>
    <filter
       color-interpolation-filters="sRGB"
       id="filter5833"
       x="-0.065031846"
       y="-0.038037875"
       width="1.1300637"
       height="1.0760758">
      <feGaussianBlur
         id="feGaussianBlur5835"
         stdDeviation="0.95337817" />
    </filter>
    <filter
       color-interpolation-filters="sRGB"
       id="filter5839"
       x="-0.069797302"
       y="-0.036577161"
       width="1.1395946"
       height="1.0731543">
      <feGaussianBlur
         id="feGaussianBlur5841"
         stdDeviation="0.97313777" />
    </filter>
    <radialGradient
       cx="358.08221"
       cy="-10.573073"
       r="241.75426"
       fx="358.08221"
       fy="-10.573073"
       id="radialGradient5854"
       xlink:href="#linearGradient5848"
       gradientUnits="userSpaceOnUse"
       gradientTransform="matrix(1,0,0,0.2779331,0,74.792921)" />
    <radialGradient
       cx="302.27814"
       cy="-20.488522"
       r="190.60487"
       fx="302.27814"
       fy="-20.488522"
       id="radialGradient5871"
       xlink:href="#linearGradient5863"
       gradientUnits="userSpaceOnUse"
       gradientTransform="matrix(1,0,0,0.302072,0,92.418715)" />
    <linearGradient
       x1="204.1815"
       y1="178.34375"
       x2="208.90904"
       y2="355.21875"
       id="linearGradient5898"
       xlink:href="#linearGradient5892"
       gradientUnits="userSpaceOnUse" />
    <filter
       x="-0.02428398"
       y="-0.10711197"
       width="1.048568"
       height="1.2142239"
       color-interpolation-filters="sRGB"
       id="filter6028">
      <feGaussianBlur
         id="feGaussianBlur6030"
         stdDeviation="4.9640288" />
    </filter>
    <filter
       color-interpolation-filters="sRGB"
       id="filter6380"
       x="-0.12519512"
       y="-0.10795163"
       width="1.2503883"
       height="1.2159032">
      <feGaussianBlur
         id="feGaussianBlur6382"
         stdDeviation="0.7359692" />
    </filter>
    <filter
       color-interpolation-filters="sRGB"
       id="filter6407"
       x="-0.024"
       y="-0.024000001"
       width="1.048"
       height="1.048">
      <feGaussianBlur
         id="feGaussianBlur6409"
         stdDeviation="3.7826356" />
    </filter>
    <filter
       color-interpolation-filters="sRGB"
       id="filter6411"
       x="-0.01179927"
       y="-0.012207678"
       width="1.0235985"
       height="1.0244154">
      <feGaussianBlur
         id="feGaussianBlur6413"
         stdDeviation="2.8887313" />
    </filter>
    <linearGradient
       x1="336.71756"
       y1="471.30981"
       x2="373.41986"
       y2="139.59068"
       id="linearGradient3944"
       xlink:href="#linearGradient5757"
       gradientUnits="userSpaceOnUse"
       gradientTransform="rotate(173.68632,357.8532,280.24609)" />
    <radialGradient
       cx="507.6962"
       cy="-352.62701"
       r="49.672661"
       fx="507.6962"
       fy="-352.62701"
       id="radialGradient4056"
       xlink:href="#linearGradient4050"
       gradientUnits="userSpaceOnUse"
       gradientTransform="matrix(0.4605061,-0.2688396,0.4476508,0.766799,496.72959,814.44223)" />
    <radialGradient
       cx="507.6962"
       cy="-352.62701"
       r="49.672661"
       fx="507.6962"
       fy="-352.62701"
       id="radialGradient4072"
       xlink:href="#linearGradient4050"
       gradientUnits="userSpaceOnUse"
       gradientTransform="matrix(-0.4605061,-0.2688396,-0.4476508,0.766799,219.80188,814.44224)" />
    <filter
       x="-0.15367047"
       y="-0.14328968"
       width="1.3073409"
       height="1.2865794"
       color-interpolation-filters="sRGB"
       id="filter4085">
      <feGaussianBlur
         id="feGaussianBlur4087"
         stdDeviation="6.6010272" />
    </filter>
    <filter
       x="-0.15367047"
       y="-0.14328968"
       width="1.3073409"
       height="1.2865794"
       color-interpolation-filters="sRGB"
       id="filter4089">
      <feGaussianBlur
         id="feGaussianBlur4091"
         stdDeviation="6.6010272" />
    </filter>
    <radialGradient
       cx="157.24127"
       cy="49.963821"
       r="300.00851"
       fx="157.24127"
       fy="49.963821"
       id="radialGradient4123"
       xlink:href="#linearGradient4117"
       gradientUnits="userSpaceOnUse"
       gradientTransform="matrix(0.8657465,-0.03393442,0.03275634,0.835691,19.47356,22.601133)" />
    <filter
       color-interpolation-filters="sRGB"
       id="filter4247">
      <feGaussianBlur
         id="feGaussianBlur4249"
         stdDeviation="0.7654176" />
    </filter>
    <filter
       color-interpolation-filters="sRGB"
       id="filter4251"
       x="-0.043957895"
       y="-0.052860756"
       width="1.0879158"
       height="1.1057215">
      <feGaussianBlur
         id="feGaussianBlur4253"
         stdDeviation="0.7654176" />
    </filter>
    <linearGradient
       inkscape:collect="always"
       xlink:href="#linearGradient4995"
       id="linearGradient3505"
       gradientUnits="userSpaceOnUse"
       gradientTransform="rotate(26.163336,292.64169,166.04552)"
       x1="447.99783"
       y1="280.24783"
       x2="267.79407"
       y2="280.24783" />
  </defs>
  <path
     style="fill:#000000;fill-opacity:0.627451;stroke:none;filter:url(#filter5839)"
     id="path5837"
     d="m 370.34239,157.50711 c -0.88276,-0.43367 -1.82686,0.0579 -2.84279,1.17992 -5.12033,5.65503 -10.1505,11.28996 -16.15808,16.38621 -0.77011,0.65328 -0.62311,2.38639 -1.42759,3.02088 -1.9317,1.52352 -3.96898,2.98971 -6.14296,4.38344 -4.97919,3.19214 -2.80685,4.40078 1.07844,6.30949 l 5.27306,2.59047 -12.10791,24.64631 c -0.52435,1.06735 -0.069,2.33368 0.99835,2.85803 l 4.26331,2.09443 c 1.06736,0.52435 2.34795,0.11084 2.87231,-0.95652 l 12.1079,-24.6463 5.27305,2.59047 c 3.88529,1.90871 6.16958,2.88947 5.65311,-3.0025 -0.21274,-2.42691 -0.30007,-4.79694 -0.28803,-7.123 0.003,-0.62498 -0.91951,-2.33546 -0.90244,-2.95434 0.2337,-8.46828 1.71607,-16.38936 3.15374,-24.40578 0.26719,-1.48985 0.0793,-2.53754 -0.80347,-2.97121 z" />
  <path
     style="fill:#393939;fill-opacity:1;stroke:none"
     id="rect4787"
     d="m 217.83146,226.7846 189.52269,93.10614 -23.54604,47.92928 -189.5227,-93.10615 z" />
  <path
     style="fill:url(#linearGradient3505);fill-opacity:1;stroke:none"
     id="path4904"
     d="m 217.83146,226.7846 c 61.3068,34.83663 124.43658,65.96251 189.52269,93.10614 l -23.54604,47.92928 C 322.48649,334.06813 259.40095,302.90271 194.28541,274.71387 Z" />
  <g
     style="fill:#272727;fill-opacity:1;stroke:none"
     id="g5317"
     transform="rotate(26.163336,314.83155,138.0212)">
    <path
       style="fill:#272727;fill-opacity:1;stroke:none"
       id="path5319"
       d="m 299.32687,277.05413 c -0.80446,0 -1.46875,0.63304 -1.46875,1.4375 v 4.96875 c -1.42952,0.76192 -2.40625,2.23578 -2.40625,3.96875 0,1.73297 0.97673,3.23808 2.40625,4 v 4.9375 c 0,0.80446 0.66429,1.46875 1.46875,1.46875 h 1.3125 c 0.80446,0 1.46875,-0.66429 1.46875,-1.46875 v -4.9375 c 1.42233,-0.76413 2.40625,-2.27235 2.40625,-4 0,-1.72765 -0.98392,-3.20462 -2.40625,-3.96875 v -4.96875 c 0,-0.80446 -0.66429,-1.4375 -1.46875,-1.4375 z" />
    <path
       style="fill:#272727;fill-opacity:1;stroke:none"
       id="path5321"
       d="m 280.99261,277.05413 c -0.80446,0 -1.46875,0.63304 -1.46875,1.4375 v 4.96875 c -1.42952,0.76192 -2.40625,2.23578 -2.40625,3.96875 0,1.73297 0.97673,3.23808 2.40625,4 v 4.9375 c 0,0.80446 0.66429,1.46875 1.46875,1.46875 h 1.3125 c 0.80446,0 1.46875,-0.66429 1.46875,-1.46875 v -4.9375 c 1.42233,-0.76413 2.40625,-2.27235 2.40625,-4 0,-1.72765 -0.98392,-3.20462 -2.40625,-3.96875 v -4.96875 c 0,-0.80446 -0.66429,-1.4375 -1.46875,-1.4375 z" />
    <path
       style="fill:#272727;fill-opacity:1;stroke:none"
       id="path5323"
       d="m 317.66115,277.05413 c -0.80446,0 -1.46875,0.63304 -1.46875,1.4375 v 4.96875 c -1.42952,0.76192 -2.40625,2.23578 -2.40625,3.96875 0,1.73297 0.97673,3.23808 2.40625,4 v 4.9375 c 0,0.80446 0.66429,1.46875 1.46875,1.46875 h 1.3125 c 0.80446,0 1.46875,-0.66429 1.46875,-1.46875 v -4.9375 c 1.42233,-0.76413 2.40625,-2.27235 2.40625,-4 0,-1.72765 -0.98392,-3.20462 -2.40625,-3.96875 v -4.96875 c 0,-0.80446 -0.66429,-1.4375 -1.46875,-1.4375 z" />
    <path
       style="fill:#272727;fill-opacity:1;stroke:none"
       id="path5325"
       d="m 335.99541,277.05413 c -0.80446,0 -1.46875,0.63304 -1.46875,1.4375 v 4.96875 c -1.42952,0.76192 -2.40625,2.23578 -2.40625,3.96875 0,1.73297 0.97673,3.23808 2.40625,4 v 4.9375 c 0,0.80446 0.66429,1.46875 1.46875,1.46875 h 1.3125 c 0.80446,0 1.46875,-0.66429 1.46875,-1.46875 v -4.9375 c 1.42233,-0.76413 2.40625,-2.27235 2.40625,-4 0,-1.72765 -0.98392,-3.20462 -2.40625,-3.96875 v -4.96875 c 0,-0.80446 -0.66429,-1.4375 -1.46875,-1.4375 z" />
    <path
       style="fill:#272727;fill-opacity:1;stroke:none"
       id="path5327"
       d="m 354.32968,277.05413 c -0.80446,0 -1.46875,0.63304 -1.46875,1.4375 v 4.96875 c -1.42952,0.76192 -2.40625,2.23578 -2.40625,3.96875 0,1.73297 0.97673,3.23808 2.40625,4 v 4.9375 c 0,0.80446 0.66429,1.46875 1.46875,1.46875 h 1.3125 c 0.80446,0 1.46875,-0.66429 1.46875,-1.46875 v -4.9375 c 1.42233,-0.76413 2.40625,-2.27235 2.40625,-4 0,-1.72765 -0.98392,-3.20462 -2.40625,-3.96875 v -4.96875 c 0,-0.80446 -0.66429,-1.4375 -1.46875,-1.4375 z" />
    <path
       style="fill:#272727;fill-opacity:1;stroke:none"
       id="path5329"
       d="m 390.99822,277.05413 c -0.80446,0 -1.46875,0.63304 -1.46875,1.4375 v 4.96875 c -1.42952,0.76192 -2.40625,2.23578 -2.40625,3.96875 0,1.73297 0.97673,3.23808 2.40625,4 v 4.9375 c 0,0.80446 0.66429,1.46875 1.46875,1.46875 h 1.3125 c 0.80446,0 1.46875,-0.66429 1.46875,-1.46875 v -4.9375 c 1.42233,-0.76413 2.40625,-2.27235 2.40625,-4 0,-1.72765 -0.98392,-3.20462 -2.40625,-3.96875 v -4.96875 c 0,-0.80446 -0.66429,-1.4375 -1.46875,-1.4375 z" />
    <path
       style="fill:#272727;fill-opacity:1;stroke:none"
       id="path5331"
       d="m 409.3325,277.05413 c -0.80446,0 -1.46875,0.63304 -1.46875,1.4375 v 4.96875 c -1.42952,0.76192 -2.40625,2.23578 -2.40625,3.96875 0,1.73297 0.97673,3.23808 2.40625,4 v 4.9375 c 0,0.80446 0.66429,1.46875 1.46875,1.46875 h 1.3125 c 0.80446,0 1.46875,-0.66429 1.46875,-1.46875 v -4.9375 c 1.42233,-0.76413 2.40625,-2.27235 2.40625,-4 0,-1.72765 -0.98392,-3.20462 -2.40625,-3.96875 v -4.96875 c 0,-0.80446 -0.66429,-1.4375 -1.46875,-1.4375 z" />
    <path
       style="fill:#272727;fill-opacity:1;stroke:none"
       id="path5333"
       d="m 427.66676,277.05413 c -0.80446,0 -1.46875,0.63304 -1.46875,1.4375 v 4.96875 c -1.42952,0.76192 -2.40625,2.23578 -2.40625,3.96875 0,1.73297 0.97673,3.23808 2.40625,4 v 4.9375 c 0,0.80446 0.66429,1.46875 1.46875,1.46875 h 1.3125 c 0.80446,0 1.46875,-0.66429 1.46875,-1.46875 v -4.9375 c 1.42233,-0.76413 2.40625,-2.27235 2.40625,-4 0,-1.72765 -0.98392,-3.20462 -2.40625,-3.96875 v -4.96875 c 0,-0.80446 -0.66429,-1.4375 -1.46875,-1.4375 z" />
    <path
       style="fill:#272727;fill-opacity:1;stroke:none"
       id="path5335"
       d="m 446.00104,277.05413 c -0.80446,0 -1.46875,0.63304 -1.46875,1.4375 v 4.96875 c -1.42952,0.76192 -2.40625,2.23578 -2.40625,3.96875 0,1.73297 0.97673,3.23808 2.40625,4 v 4.9375 c 0,0.80446 0.66429,1.46875 1.46875,1.46875 h 1.3125 c 0.80446,0 1.46875,-0.66429 1.46875,-1.46875 v -4.9375 c 1.42233,-0.76413 2.40625,-2.27235 2.40625,-4 0,-1.72765 -0.98392,-3.20462 -2.40625,-3.96875 v -4.96875 c 0,-0.80446 -0.66429,-1.4375 -1.46875,-1.4375 z" />
    <path
       style="fill:#272727;fill-opacity:1;stroke:none"
       id="path5337"
       d="m 464.3353,277.05413 c -0.80446,0 -1.46875,0.63304 -1.46875,1.4375 v 4.96875 c -1.42952,0.76192 -2.40625,2.23578 -2.40625,3.96875 0,1.73297 0.97673,3.23808 2.40625,4 v 4.9375 c 0,0.80446 0.66429,1.46875 1.46875,1.46875 h 1.3125 c 0.80446,0 1.46875,-0.66429 1.46875,-1.46875 v -4.9375 c 1.42233,-0.76413 2.40625,-2.27235 2.40625,-4 0,-1.72765 -0.98392,-3.20462 -2.40625,-3.96875 v -4.96875 c 0,-0.80446 -0.66429,-1.4375 -1.46875,-1.4375 z" />
    <path
       style="fill:#272727;fill-opacity:1;stroke:none"
       id="path5339"
       d="m 372.66394,277.05413 c -0.80446,0 -1.46875,0.63304 -1.46875,1.4375 v 4.96875 c -1.42952,0.76192 -2.40625,2.23578 -2.40625,3.96875 0,1.73297 0.97673,3.23808 2.40625,4 v 4.9375 c 0,0.80446 0.66429,1.46875 1.46875,1.46875 h 1.3125 c 0.80446,0 1.46875,-0.66429 1.46875,-1.46875 v -4.9375 c 1.42233,-0.76413 2.40625,-2.27235 2.40625,-4 0,-1.72765 -0.98392,-3.20462 -2.40625,-3.96875 v -4.96875 c 0,-0.80446 -0.66429,-1.4375 -1.46875,-1.4375 z" />
  </g>
  <g
     style="fill:#ffffff;fill-opacity:1;stroke:none"
     id="g4742"
     transform="rotate(26.163336,315.85911,136.37153)">
    <path
       style="fill:#ffffff;fill-opacity:1;stroke:none"
       id="rect4716"
       d="m 299.32687,277.05413 c -0.80446,0 -1.46875,0.63304 -1.46875,1.4375 v 4.96875 c -1.42952,0.76192 -2.40625,2.23578 -2.40625,3.96875 0,1.73297 0.97673,3.23808 2.40625,4 v 4.9375 c 0,0.80446 0.66429,1.46875 1.46875,1.46875 h 1.3125 c 0.80446,0 1.46875,-0.66429 1.46875,-1.46875 v -4.9375 c 1.42233,-0.76413 2.40625,-2.27235 2.40625,-4 0,-1.72765 -0.98392,-3.20462 -2.40625,-3.96875 v -4.96875 c 0,-0.80446 -0.66429,-1.4375 -1.46875,-1.4375 z" />
    <path
       style="fill:#ffffff;fill-opacity:1;stroke:none"
       id="path4722"
       d="m 280.99261,277.05413 c -0.80446,0 -1.46875,0.63304 -1.46875,1.4375 v 4.96875 c -1.42952,0.76192 -2.40625,2.23578 -2.40625,3.96875 0,1.73297 0.97673,3.23808 2.40625,4 v 4.9375 c 0,0.80446 0.66429,1.46875 1.46875,1.46875 h 1.3125 c 0.80446,0 1.46875,-0.66429 1.46875,-1.46875 v -4.9375 c 1.42233,-0.76413 2.40625,-2.27235 2.40625,-4 0,-1.72765 -0.98392,-3.20462 -2.40625,-3.96875 v -4.96875 c 0,-0.80446 -0.66429,-1.4375 -1.46875,-1.4375 z" />
    <path
       style="fill:#ffffff;fill-opacity:1;stroke:none"
       id="path4724"
       d="m 317.66115,277.05413 c -0.80446,0 -1.46875,0.63304 -1.46875,1.4375 v 4.96875 c -1.42952,0.76192 -2.40625,2.23578 -2.40625,3.96875 0,1.73297 0.97673,3.23808 2.40625,4 v 4.9375 c 0,0.80446 0.66429,1.46875 1.46875,1.46875 h 1.3125 c 0.80446,0 1.46875,-0.66429 1.46875,-1.46875 v -4.9375 c 1.42233,-0.76413 2.40625,-2.27235 2.40625,-4 0,-1.72765 -0.98392,-3.20462 -2.40625,-3.96875 v -4.96875 c 0,-0.80446 -0.66429,-1.4375 -1.46875,-1.4375 z" />
    <path
       style="fill:#ffffff;fill-opacity:1;stroke:none"
       id="path4726"
       d="m 335.99541,277.05413 c -0.80446,0 -1.46875,0.63304 -1.46875,1.4375 v 4.96875 c -1.42952,0.76192 -2.40625,2.23578 -2.40625,3.96875 0,1.73297 0.97673,3.23808 2.40625,4 v 4.9375 c 0,0.80446 0.66429,1.46875 1.46875,1.46875 h 1.3125 c 0.80446,0 1.46875,-0.66429 1.46875,-1.46875 v -4.9375 c 1.42233,-0.76413 2.40625,-2.27235 2.40625,-4 0,-1.72765 -0.98392,-3.20462 -2.40625,-3.96875 v -4.96875 c 0,-0.80446 -0.66429,-1.4375 -1.46875,-1.4375 z" />
    <path
       style="fill:#ffffff;fill-opacity:1;stroke:none"
       id="path4728"
       d="m 354.32968,277.05413 c -0.80446,0 -1.46875,0.63304 -1.46875,1.4375 v 4.96875 c -1.42952,0.76192 -2.40625,2.23578 -2.40625,3.96875 0,1.73297 0.97673,3.23808 2.40625,4 v 4.9375 c 0,0.80446 0.66429,1.46875 1.46875,1.46875 h 1.3125 c 0.80446,0 1.46875,-0.66429 1.46875,-1.46875 v -4.9375 c 1.42233,-0.76413 2.40625,-2.27235 2.40625,-4 0,-1.72765 -0.98392,-3.20462 -2.40625,-3.96875 v -4.96875 c 0,-0.80446 -0.66429,-1.4375 -1.46875,-1.4375 z" />
    <path
       style="fill:#ffffff;fill-opacity:1;stroke:none"
       id="path4730"
       d="m 390.99822,277.05413 c -0.80446,0 -1.46875,0.63304 -1.46875,1.4375 v 4.96875 c -1.42952,0.76192 -2.40625,2.23578 -2.40625,3.96875 0,1.73297 0.97673,3.23808 2.40625,4 v 4.9375 c 0,0.80446 0.66429,1.46875 1.46875,1.46875 h 1.3125 c 0.80446,0 1.46875,-0.66429 1.46875,-1.46875 v -4.9375 c 1.42233,-0.76413 2.40625,-2.27235 2.40625,-4 0,-1.72765 -0.98392,-3.20462 -2.40625,-3.96875 v -4.96875 c 0,-0.80446 -0.66429,-1.4375 -1.46875,-1.4375 z" />
    <path
       style="fill:#ffffff;fill-opacity:1;stroke:none"
       id="path4732"
       d="m 409.3325,277.05413 c -0.80446,0 -1.46875,0.63304 -1.46875,1.4375 v 4.96875 c -1.42952,0.76192 -2.40625,2.23578 -2.40625,3.96875 0,1.73297 0.97673,3.23808 2.40625,4 v 4.9375 c 0,0.80446 0.66429,1.46875 1.46875,1.46875 h 1.3125 c 0.80446,0 1.46875,-0.66429 1.46875,-1.46875 v -4.9375 c 1.42233,-0.76413 2.40625,-2.27235 2.40625,-4 0,-1.72765 -0.98392,-3.20462 -2.40625,-3.96875 v -4.96875 c 0,-0.80446 -0.66429,-1.4375 -1.46875,-1.4375 z" />
    <path
       style="fill:#ffffff;fill-opacity:1;stroke:none"
       id="path4734"
       d="m 427.66676,277.05413 c -0.80446,0 -1.46875,0.63304 -1.46875,1.4375 v 4.96875 c -1.42952,0.76192 -2.40625,2.23578 -2.40625,3.96875 0,1.73297 0.97673,3.23808 2.40625,4 v 4.9375 c 0,0.80446 0.66429,1.46875 1.46875,1.46875 h 1.3125 c 0.80446,0 1.46875,-0.66429 1.46875,-1.46875 v -4.9375 c 1.42233,-0.76413 2.40625,-2.27235 2.40625,-4 0,-1.72765 -0.98392,-3.20462 -2.40625,-3.96875 v -4.96875 c 0,-0.80446 -0.66429,-1.4375 -1.46875,-1.4375 z" />
    <path
       style="fill:#ffffff;fill-opacity:1;stroke:none"
       id="path4736"
       d="m 446.00104,277.05413 c -0.80446,0 -1.46875,0.63304 -1.46875,1.4375 v 4.96875 c -1.42952,0.76192 -2.40625,2.23578 -2.40625,3.96875 0,1.73297 0.97673,3.23808 2.40625,4 v 4.9375 c 0,0.80446 0.66429,1.46875 1.46875,1.46875 h 1.3125 c 0.80446,0 1.46875,-0.66429 1.46875,-1.46875 v -4.9375 c 1.42233,-0.76413 2.40625,-2.27235 2.40625,-4 0,-1.72765 -0.98392,-3.20462 -2.40625,-3.96875 v -4.96875 c 0,-0.80446 -0.66429,-1.4375 -1.46875,-1.4375 z" />
    <path
       style="fill:#ffffff;fill-opacity:1;stroke:none"
       id="path4738"
       d="m 464.3353,277.05413 c -0.80446,0 -1.46875,0.63304 -1.46875,1.4375 v 4.96875 c -1.42952,0.76192 -2.40625,2.23578 -2.40625,3.96875 0,1.73297 0.97673,3.23808 2.40625,4 v 4.9375 c 0,0.80446 0.66429,1.46875 1.46875,1.46875 h 1.3125 c 0.80446,0 1.46875,-0.66429 1.46875,-1.46875 v -4.9375 c 1.42233,-0.76413 2.40625,-2.27235 2.40625,-4 0,-1.72765 -0.98392,-3.20462 -2.40625,-3.96875 v -4.96875 c 0,-0.80446 -0.66429,-1.4375 -1.46875,-1.4375 z" />
    <path
       style="fill:#ffffff;fill-opacity:1;stroke:none"
       id="path4740"
       d="m 372.66394,277.05413 c -0.80446,0 -1.46875,0.63304 -1.46875,1.4375 v 4.96875 c -1.42952,0.76192 -2.40625,2.23578 -2.40625,3.96875 0,1.73297 0.97673,3.23808 2.40625,4 v 4.9375 c 0,0.80446 0.66429,1.46875 1.46875,1.46875 h 1.3125 c 0.80446,0 1.46875,-0.66429 1.46875,-1.46875 v -4.9375 c 1.42233,-0.76413 2.40625,-2.27235 2.40625,-4 0,-1.72765 -0.98392,-3.20462 -2.40625,-3.96875 v -4.96875 c 0,-0.80446 -0.66429,-1.4375 -1.46875,-1.4375 z" />
  </g>
  <path
     style="fill:#ffffff;fill-opacity:1;stroke:none"
     id="rect4683"
     d="m 370.03134,156.41842 c -0.88276,-0.43367 -1.82687,0.0579 -2.84279,1.17992 -7.35278,8.12059 -14.51961,16.19975 -24.66179,22.70185 -4.97919,3.19214 -2.80685,4.40078 1.07844,6.30949 l 5.27306,2.59047 -12.10791,24.64631 c -0.52435,1.06735 -0.069,2.33368 0.99835,2.85803 l 4.26331,2.09443 c 1.06736,0.52435 2.34795,0.11084 2.87231,-0.95652 l 12.1079,-24.6463 5.27305,2.59047 c 3.88529,1.90871 6.16958,2.88947 5.65311,-3.0025 -1.05202,-12.00144 0.96264,-22.61169 2.89643,-33.39444 0.26719,-1.48984 0.0793,-2.53754 -0.80347,-2.97121 z" />
  <path
     style="fill:#000000;fill-opacity:0.588235;stroke:none;filter:url(#filter5833)"
     id="path5831"
     d="m 232.50184,438.40888 c -0.64377,-0.31627 -0.8495,-1.484 -0.58015,-2.67663 l 4.61644,-14.99736 3.65678,-7.44358 2.66976,-1.63276 15.77725,-32.11547 c 0.52436,-1.06736 1.80577,-1.5045 2.87313,-0.98015 l 4.27382,2.09959 c 1.06735,0.52435 1.50449,1.80577 0.98014,2.87312 l -15.8031,32.16809 -2.80108,1.90008 -3.49961,7.12365 -9.80359,12.44908 c -0.89219,0.95699 -1.71602,1.5486 -2.35979,1.23234 z" />
  <path
     style="fill:#ffffff;fill-opacity:1;stroke:none"
     id="rect4692"
     d="m 232.72178,435.10966 c -0.64377,-0.31627 -0.8495,-1.484 -0.58015,-2.67663 l 4.61644,-14.99736 20.34421,-41.41176 c 0.52436,-1.06736 1.80577,-1.5045 2.87313,-0.98015 l 4.27382,2.09959 c 1.06735,0.52435 1.50449,1.80577 0.98014,2.87312 l -20.34421,41.41177 -9.80359,12.44908 c -0.89219,0.95699 -1.71602,1.5486 -2.35979,1.23234 z" />
  <g
     id="markers"
     transform="matrix(3.6775557,0,0,3.6775557,315.05508,-1035.7697)">
    <g
       id="g1371"
       transform="rotate(45,-70.812158,274.17098)" />
    <g
       transform="rotate(90,59.800561,274.16803)"
       id="g1377" />
    <g
       id="g1383"
       transform="rotate(135,113.90013,274.1688)" />
    <g
       transform="translate(0,184.71355)"
       id="g1365" />
  </g>
</svg>
